<svg xmlns="http://www.w3.org/2000/svg" width="256" height="256" viewBox="0 0 100 100"><rect width="100" height="100" rx="50" fill="#222133"></rect><path fill="#fff" d="M67.73 36.71L67.73 36.71Q67.73 40.50 65.93 43.71Q64.12 46.92 59.90 48.68L59.90 48.68Q64.92 50.35 67.38 53.92Q69.84 57.48 69.84 61.97L69.84 61.97Q69.84 69.98 64.08 73.85Q58.32 77.72 47.67 77.72L47.67 77.72Q43.97 77.72 40.50 77.41Q37.02 77.10 33.85 76.22L33.85 76.22Q30.16 75.17 30.16 72.18L30.16 72.18L30.16 27.12Q30.16 24.57 33.06 23.78L33.06 23.78Q36.05 22.90 39.40 22.59Q42.74 22.28 46.70 22.28L46.70 22.28Q56.64 22.28 62.19 25.80Q67.73 29.32 67.73 36.71ZM49.16 51.85L37.20 51.85L37.20 70.86Q39.31 71.30 42.08 71.56Q44.85 71.82 47.67 71.82L47.67 71.82Q54.97 71.82 58.76 69.40Q62.54 66.98 62.54 61.79L62.54 61.79Q62.54 57.22 59.15 54.53Q55.76 51.85 49.16 51.85L49.16 51.85ZM37.20 28.97L37.20 46.04L49.16 46.04Q54.71 46.04 57.57 43.58Q60.43 41.11 60.43 36.89L60.43 36.89Q60.43 28.18 46.70 28.18L46.70 28.18Q43.62 28.18 41.38 28.40Q39.13 28.62 37.20 28.97L37.20 28.97Z"></path></svg>